<?xml version="1.0" encoding="UTF-8"?>
<svg width="20px" height="20px" viewBox="0 0 20 20" version="1.1" xmlns="http://www.w3.org/2000/svg" xmlns:xlink="http://www.w3.org/1999/xlink">
    <!-- Generator: Sketch 52.5 (67469) - http://www.bohemiancoding.com/sketch -->
    <title>backup</title>
    <desc>Created with Sketch.</desc>
    <g id="Page-1" stroke="none" stroke-width="1" fill="none" fill-rule="evenodd">
        <g id="Artboard" transform="translate(-6.000000, -6.000000)" fill="#757575">
            <g id="backup" transform="translate(6.000000, 6.000000)">
                <polygon id="Fill-1927" points="13.293 4.293 11 6.586 11 2.66453526e-15 9 2.66453526e-15 9 6.586 6.707 4.293 5.293 5.707 10 10.414 14.707 5.707"></polygon>
                <path d="M16,17 C15.448,17 15,16.553 15,16 C15,15.448 15.448,15 16,15 C16.552,15 17,15.448 17,16 C17,16.553 16.552,17 16,17 M13,17 C12.448,17 12,16.553 12,16 C12,15.448 12.448,15 13,15 C13.552,15 14,15.448 14,16 C14,16.553 13.552,17 13,17 M18,12 L2,12 C0.897,12 0,12.897 0,14 L0,18 C0,19.103 0.897,20 2,20 L18,20 C19.103,20 20,19.103 20,18 L20,14 C20,12.897 19.103,12 18,12" id="Fill-1928"></path>
            </g>
        </g>
    </g>
</svg>