<?xml version="1.0" encoding="UTF-8"?>
<svg width="18px" height="18px" viewBox="0 0 18 18" version="1.1" xmlns="http://www.w3.org/2000/svg" xmlns:xlink="http://www.w3.org/1999/xlink">
    <!-- Generator: Sketch 52.5 (67469) - http://www.bohemiancoding.com/sketch -->
    <title>HTTPS</title>
    <desc>Created with Sketch.</desc>
    <g id="Page-1" stroke="none" stroke-width="1" fill="none" fill-rule="evenodd">
        <g id="Artboard" transform="translate(-7.000000, -7.000000)" fill="#757575">
            <g id="HTTPS" transform="translate(7.000000, 7.000000)">
                <path d="M17,0 L5,0 C4.448,0 4,0.448 4,1 L4,2 L7,2 C8.104,2 9,2.896 9,4 L9,14 C9,15.104 8.104,16 7,16 L4,16 L4,17 C4,17.552 4.448,18 5,18 L17,18 C17.552,18 18,17.552 18,17 L18,1 C18,0.448 17.552,0 17,0" id="Fill-1896"></path>
                <path d="M6,13 L2,13 L2,9 L6,9 L6,13 Z M3,6 C3,5.449 3.449,5 4,5 C4.551,5 5,5.449 5,6 L5,7 L3,7 L3,6 Z M7,7 L7,6 C7,4.346 5.654,3 4,3 C2.346,3 1,4.346 1,6 L1,7 C0.448,7 0,7.448 0,8 L0,14 C0,14.552 0.448,15 1,15 L7,15 C7.552,15 8,14.552 8,14 L8,8 C8,7.448 7.552,7 7,7 L7,7 Z" id="Fill-1897"></path>
                <path d="M5,11 C5,11.553 4.552,12 4,12 C3.448,12 3,11.553 3,11 C3,10.448 3.448,10 4,10 C4.552,10 5,10.448 5,11" id="Fill-1898"></path>
            </g>
        </g>
    </g>
</svg>