<?xml version="1.0" encoding="UTF-8"?>
<svg width="18px" height="18px" viewBox="0 0 18 18" version="1.1" xmlns="http://www.w3.org/2000/svg" xmlns:xlink="http://www.w3.org/1999/xlink">
    <!-- Generator: Sketch 52.5 (67469) - http://www.bohemiancoding.com/sketch -->
    <title>plus-heavy</title>
    <desc>Created with Sketch.</desc>
    <g id="Page-1" stroke="none" stroke-width="1" fill="none" fill-rule="evenodd">
        <g id="Artboard" transform="translate(-7.000000, -7.000000)" fill="#757575">
            <g id="plus-heavy" transform="translate(7.000000, 7.000000)">
                <path d="M12,6 L12,1 C12,0.448 11.552,0 11,0 L7,0 C6.448,0 6,0.448 6,1 L6,6 L1,6 C0.448,6 0,6.448 0,7 L0,11 C0,11.553 0.448,12 1,12 L6,12 L6,17 C6,17.553 6.448,18 7,18 L11,18 C11.552,18 12,17.553 12,17 L12,12 L17,12 C17.552,12 18,11.553 18,11 L18,7 C18,6.448 17.552,6 17,6 L12,6 Z" id="Fill-1316"></path>
            </g>
        </g>
    </g>
</svg>