<?xml version="1.0" encoding="UTF-8"?>
<svg width="20px" height="18px" viewBox="0 0 20 18" version="1.1" xmlns="http://www.w3.org/2000/svg" xmlns:xlink="http://www.w3.org/1999/xlink">
    <!-- Generator: Sketch 52.5 (67469) - http://www.bohemiancoding.com/sketch -->
    <title>Settings</title>
    <desc>Created with Sketch.</desc>
    <g id="Page-1" stroke="none" stroke-width="1" fill="none" fill-rule="evenodd">
        <g id="Artboard" transform="translate(-6.000000, -7.000000)" fill="#767676">
            <g id="Settings" transform="translate(6.000000, 7.000000)">
                <path d="M12.5,3 C12.5,2.655 12.547,2.323 12.621,2 L0,2 L0,4 L12.621,4 C12.547,3.677 12.5,3.345 12.5,3" id="Fill-1505"></path>
                <path d="M12.5,15 C12.5,14.655 12.547,14.323 12.621,14 L0,14 L0,16 L12.621,16 C12.547,15.677 12.5,15.345 12.5,15" id="Fill-1506"></path>
                <path d="M2.5,9 C2.5,8.655 2.547,8.323 2.621,8 L0,8 L0,10 L2.621,10 C2.547,9.677 2.5,9.345 2.5,9" id="Fill-1507"></path>
                <path d="M11.3789,8 C11.4529,8.323 11.4999,8.655 11.4999,9 C11.4999,9.345 11.4529,9.677 11.3789,10 L19.9999,10 L19.9999,8 L11.3789,8 Z" id="Fill-1508"></path>
                <path d="M17,0 C15.346,0 14,1.346 14,3 C14,4.654 15.346,6 17,6 C18.654,6 20,4.654 20,3 C20,1.346 18.654,0 17,0" id="Fill-1509"></path>
                <path d="M7,6 C5.346,6 4,7.346 4,9 C4,10.654 5.346,12 7,12 C8.654,12 10,10.654 10,9 C10,7.346 8.654,6 7,6" id="Fill-1510"></path>
                <path d="M17,12 C15.346,12 14,13.346 14,15 C14,16.654 15.346,18 17,18 C18.654,18 20,16.654 20,15 C20,13.346 18.654,12 17,12" id="Fill-1511"></path>
            </g>
        </g>
    </g>
</svg>