<?xml version="1.0" encoding="UTF-8"?>
<svg width="24px" height="24px" viewBox="0 0 24 24" version="1.1" xmlns="http://www.w3.org/2000/svg" xmlns:xlink="http://www.w3.org/1999/xlink">
    <!-- Generator: Sketch 52.5 (67469) - http://www.bohemiancoding.com/sketch -->
    <title>SFTP</title>
    <desc>Created with Sketch.</desc>
    <g id="Page-1" stroke="none" stroke-width="1" fill="none" fill-rule="evenodd">
        <g id="Artboard" transform="translate(-4.000000, -4.000000)" fill="#767676">
            <g id="SFTP" transform="translate(4.000000, 4.000000)">
                <path d="M6,3 C5.448,3 5,2.552 5,2 C5,1.448 5.448,1 6,1 C6.552,1 7,1.448 7,2 C7,2.552 6.552,3 6,3 L6,3 Z M3,3 C2.448,3 2,2.552 2,2 C2,1.448 2.448,1 3,1 C3.552,1 4,1.448 4,2 C4,2.552 3.552,3 3,3 L3,3 Z M20,2 C20,0.896 19.103,0 18,0 L2,0 C0.897,0 0,0.896 0,2 L0,4.002 L20,4.002 L20,2 Z" id="Fill-3997"></path>
                <path d="M19,9 C19.34,9 19.672,9.033 20,9.08 L20,5.002 L0,5.002 L0,16 C0,17.103 0.897,18 2,18 L12,18 L12,16 C12,12.134 15.134,9 19,9" id="Fill-3998"></path>
                <path d="M21.999,22 L15.999,22 L15.999,17 L21.999,17 L21.999,22 Z M18.999,13 C20.102,13 20.999,13.897 20.999,15 L16.999,15 C16.999,13.897 17.896,13 18.999,13 L18.999,13 Z M22.999,15 C22.999,12.794 21.205,11 18.999,11 C16.793,11 14.999,12.794 14.999,15 C14.446,15 13.999,15.447 13.999,16 L13.999,23 C13.999,23.553 14.446,24 14.999,24 L22.999,24 C23.552,24 23.999,23.553 23.999,23 L23.999,16 C23.999,15.447 23.552,15 22.999,15 L22.999,15 Z" id="Fill-3999"></path>
                <path d="M19,20 C19.552,20 20,19.552 20,19 C20,18.448 19.552,18 19,18 C18.448,18 18,18.448 18,19 C18,19.552 18.448,20 19,20" id="Fill-4000"></path>
            </g>
        </g>
    </g>
</svg>